<svg xmlns="http://www.w3.org/2000/svg" fill="none" viewBox="0 0 250 250">
  
  
  
  
  
  
<g transform="matrix(17.857142857142858,0,0,17.857142857142858,0,0)"><path fill="#D7E0FF" d="M9.397 7.009a2.399 2.399 0 100-4.798 2.399 2.399 0 000 4.798z"></path><path stroke="#4147D5" stroke-linecap="round" stroke-linejoin="round" stroke-width="1.5" d="M9.397 7.009a2.399 2.399 0 00.852-4.642"></path><path fill="#D7E0FF" d="M12.674 10.379c1.173.781.38 2.288-1.03 2.288H6.35c-1.41 0-2.202-1.507-1.028-2.288a6.609 6.609 0 013.676-1.11c1.36 0 2.623.409 3.676 1.11z"></path><path fill="#D7E0FF" stroke="#4147D5" stroke-linecap="round" stroke-linejoin="round" stroke-width="1.5" d="M5.36 6.533a2.6 2.6 0 100-5.2 2.6 2.6 0 000 5.2z"></path><path fill="#D7E0FF" stroke="#4147D5" stroke-width="1.5" d="M9.344 10.187c1.272.847.413 2.48-1.116 2.48H2.49c-1.528 0-2.387-1.633-1.115-2.48A7.164 7.164 0 015.36 8.984c1.473 0 2.844.443 3.985 1.203z"></path><path stroke="#4147D5" stroke-linecap="round" stroke-width="1.5" d="M8.007 12.668h3.638c1.41 0 2.202-1.508 1.029-2.29a6.62 6.62 0 00-1.03-.56"></path></g></svg>