<svg xmlns="http://www.w3.org/2000/svg" fill="none" viewBox="0 0 250 250">
  
<g transform="matrix(17.857142857142858,0,0,17.857142857142858,0,0)"><path fill="#D7E0FF" stroke="#4147D5" stroke-linejoin="round" stroke-width="1.5" d="M5.005 2.71C5.04 1.829 5.616.974 6.481.804 6.652.771 6.825.75 7 .75c.175 0 .348.02.519.054.865.17 1.441 1.025 1.476 1.906a1292.818 1292.818 0 00.048 1.273c.02.529.445.954.974.974a370.334 370.334 0 011.273.048c.881.035 1.736.611 1.906 1.476.033.171.054.344.054.519 0 .175-.02.348-.054.519-.17.865-1.025 1.441-1.906 1.476l-.245.01-1.028.038c-.529.02-.954.445-.974.974-.012.346-.026.689-.039 1.028l-.01.245c-.034.881-.61 1.736-1.475 1.906A2.693 2.693 0 017 13.25c-.175 0-.348-.02-.519-.054-.865-.17-1.441-1.025-1.476-1.906a1398.164 1398.164 0 00-.048-1.273 1.012 1.012 0 00-.974-.974c-.346-.012-.688-.026-1.028-.039l-.245-.01C1.829 8.96.974 8.385.804 7.52A2.688 2.688 0 01.75 7c0-.175.02-.348.054-.519.17-.865 1.025-1.441 1.906-1.476a1292.481 1292.481 0 001.273-.048c.529-.02.954-.445.974-.974a371.433 371.433 0 01.048-1.273z"></path></g></svg>