<svg xmlns="http://www.w3.org/2000/svg" fill="none" viewBox="0 0 250 250">
  
<g transform="matrix(17.857142857142858,0,0,17.857142857142858,0,0)"><path fill="#D7E0FF" stroke="#4147D5" stroke-linecap="round" stroke-linejoin="round" stroke-width="1.5" d="M9.12 5.036c-.818-.818-.863-1.695.82-3.378a.14.14 0 00-.03-.223C8.4.597 6.924.79 5.679 2.035c-1.167 1.168-1.41 2.54-.742 3.954a.13.13 0 01-.032.153 42.132 42.132 0 00-1.762 1.643c-.58.58-1.121 1.177-1.643 1.762-.62.696-.754 1.78-.172 2.51.091.114.188.224.292.329.105.104.215.2.329.292.73.582 1.814.448 2.51-.173a42.158 42.158 0 001.762-1.642A42.12 42.12 0 007.863 9.1a.13.13 0 01.153-.031c1.414.667 2.786.425 3.954-.743 1.204-1.204 1.424-2.625.677-4.086a.093.093 0 00-.148-.022c-1.683 1.682-2.56 1.637-3.378.818z"></path></g></svg>