<svg xmlns="http://www.w3.org/2000/svg" fill="none" viewBox="0 0 250 250">
  
  
  
<g transform="matrix(17.857142857142858,0,0,17.857142857142858,0,0)"><path stroke="#4147D5" stroke-linecap="round" stroke-width="1.5" d="M.75.75v12.5"></path><path fill="#D7E0FF" stroke="#4147D5" stroke-width="1.5" d="M6.429 1.75c.917 0 1.857.062 2.473.142a.983.983 0 01.859.803c.055.283.096.635.096 1.055 0 .42-.04.772-.096 1.055a.983.983 0 01-.859.803c-.616.08-1.556.142-2.473.142-.918 0-1.858-.062-2.474-.142a.983.983 0 01-.859-.803A5.491 5.491 0 013 3.75c0-.42.04-.772.096-1.055a.983.983 0 01.86-.803c.615-.08 1.555-.142 2.473-.142z"></path><path fill="#D7E0FF" stroke="#4147D5" stroke-width="1.5" d="M7.929 8.25c1.681 0 3.148.072 3.97.161a.957.957 0 01.862.784c.055.283.096.635.096 1.055 0 .42-.04.772-.096 1.055a.957.957 0 01-.863.784c-.82.089-2.288.16-3.97.16-1.681 0-3.148-.071-3.969-.16a.957.957 0 01-.863-.784A5.49 5.49 0 013 10.25c0-.42.04-.772.096-1.055a.957.957 0 01.863-.784c.82-.089 2.288-.161 3.97-.161z"></path></g></svg>